P3
3 4
255
0 0 255 0 255 0 0 66 66
100 0 100 99 77 99 66 11 66 
0 70 0 55 45 55 15 105 195
0 70 0 55 45 55 15 105 195 
